<?xml version="1.0" encoding="UTF-8"?>
<svg id="Layer_1" xmlns="http://www.w3.org/2000/svg" version="1.1" viewBox="0 0 231.69 63.43">
  <!-- Generator: Adobe Illustrator 29.4.0, SVG Export Plug-In . SVG Version: 2.1.0 Build 152)  -->
  <defs>
    <style>
      .st0 {
        fill: #fff;
      }
    </style>
  </defs>
  <path class="st0" d="M32.42,25.24v16.96c0,2.01.49,3.65,1.48,4.92.99,1.27,2.25,1.91,3.79,1.91,1.3,0,3.03-.6,5.17-1.81.5-.3,1-.45,1.5-.45.8,0,1.54.49,2.21,1.46.67.97,1,2.02,1,3.16,0,2.07-1.14,4.06-3.41,5.97-4.75,4.05-10.51,6.07-17.26,6.07-5.35,0-9.65-1.51-12.9-4.54-3.25-3.03-4.87-7.02-4.87-11.97v-23.18c0-.77-.09-1.25-.28-1.43-.18-.18-.66-.28-1.43-.28H2.26c-.97,0-1.59-.16-1.86-.48-.27-.31-.4-1.06-.4-2.23v-2.21c.03-1,.42-1.74,1.15-2.21L24.14.45c.57-.3,1.27-.45,2.11-.45h4.06c.84,0,1.4.19,1.68.58s.43,1.15.43,2.28v6.77c0,1,.16,1.66.48,1.96s1,.45,2.03.45h9.28c1.24,0,2.04.23,2.41.68.37.45.55,1.41.55,2.89v2.96c0,1.61-.23,2.72-.7,3.34s-1.32.93-2.56.93h-9.08c-.94,0-1.57.17-1.91.5-.34.33-.5.97-.5,1.9Z"/>
  <path class="st0" d="M80.69,12.04c6.12,0,11.49,1.59,16.11,4.77,3.31,2.28,5.97,5.24,7.98,8.88,2.07,3.81,3.11,7.79,3.11,11.94,0,7.26-3.33,13.43-9.99,18.52-6.36,4.85-13.63,7.28-21.83,7.28s-14.47-2.27-19.42-6.82c-4.82-4.42-7.23-10.17-7.23-17.26,0-7.9,2.94-14.35,8.83-19.37,6.17-5.29,13.64-7.94,22.44-7.94ZM76.68,23.64c-1.47,0-2.65.54-3.54,1.63-.89,1.09-1.33,2.53-1.33,4.34,0,2.01.38,4.74,1.13,8.21.75,3.46,1.65,6.53,2.68,9.21,1.04,2.74,2.73,4.12,5.07,4.12,2.98,0,4.47-1.89,4.47-5.67,0-2.81-.38-6-1.13-9.58s-1.66-6.49-2.73-8.73c-1.11-2.3-2.65-3.47-4.62-3.53Z"/>
  <path class="st0" d="M172.38,30.61l.7,17.66c.07,1.34.28,2.33.63,2.96.35.64,1.38,1.86,3.09,3.66.5.54.75,1.29.75,2.26,0,2.21-1.32,3.75-3.96,4.62s-7.36,1.3-14.15,1.3c-4.62,0-7.88-.4-9.79-1.21-1.97-.83-2.96-2.19-2.96-4.06,0-.67.1-1.16.3-1.48s.87-1.09,2.01-2.33c1.34-1.41,2.01-6.09,2.01-14.05,0-4.62-.54-8.03-1.61-10.24-.87-1.77-2.48-2.66-4.82-2.66s-3.78.72-4.62,2.16-1.25,4.05-1.25,7.83v9.94c0,1.97.13,3.33.38,4.06.25.74,1.08,2.16,2.48,4.27.37.6.55,1.29.55,2.06,0,1.97-1.37,3.43-4.11,4.37s-7.03,1.41-12.85,1.41c-9.3,0-13.95-1.92-13.95-5.77,0-.8.14-1.41.43-1.83.28-.42.96-1.01,2.03-1.78.87-.64,1.42-1.36,1.66-2.18.23-.82.45-2.84.65-6.05.23-3.81.35-7.81.35-11.99,0-2.31-.18-3.82-.53-4.54-.35-.72-1.36-1.6-3.04-2.63-1.44-.9-2.16-2.01-2.16-3.31s.58-2.43,1.76-3.29c1.17-.85,3.58-1.93,7.23-3.24,3.21-1.14,6.31-2.1,9.28-2.89,2.98-.79,5.02-1.18,6.12-1.18,1,0,1.85.37,2.53,1.1.68.74,1.03,1.61,1.03,2.61,0,.1-.02.52-.05,1.25-.03.27-.05.5-.05.7,0,1.61.67,2.41,2.01,2.41.8,0,1.66-.63,2.56-1.91,2.88-4.15,7.06-6.22,12.55-6.22,4.21,0,7.83,1.1,10.84,3.31,2.11,1.57,3.58,3.42,4.42,5.54.83,2.13,1.34,5.25,1.55,9.36Z"/>
  <path class="st0" d="M226.82,39.59h-23.59c-1.04,0-1.56.45-1.56,1.35,0,2.18,1.18,4.22,3.54,6.15,2.36,1.92,4.89,2.89,7.6,2.89,1.61,0,3.39-.31,5.34-.93,1.96-.62,3.57-1.38,4.84-2.28,1.14-.8,2.04-1.2,2.71-1.2.87,0,1.72.54,2.56,1.61s1.25,2.17,1.25,3.31c0,2.41-1.51,4.73-4.52,6.97-5.32,3.98-11.46,5.97-18.42,5.97s-12.91-2.04-17.66-6.12c-2.31-2.01-4.21-4.43-5.72-7.28-1.97-3.78-2.96-7.76-2.96-11.94,0-5.62,1.71-10.67,5.12-15.15,2.94-3.88,6.69-6.78,11.24-8.68,3.41-1.44,7.11-2.16,11.09-2.16,6.36,0,11.76,1.81,16.21,5.42,2.24,1.81,4.05,3.95,5.42,6.42,1.57,2.81,2.36,5.55,2.36,8.23,0,2.17-.45,3.96-1.35,5.34-.89,1.39-2.06,2.08-3.5,2.08ZM204.54,30.21h5.07c2.14,0,3.21-.99,3.21-2.96,0-1.81-.52-3.28-1.56-4.42s-2.39-1.71-4.06-1.71c-1.87,0-3.35.74-4.42,2.21-1,1.37-1.51,2.76-1.51,4.17,0,1,.24,1.71.73,2.11.49.4,1.34.6,2.54.6Z"/>
</svg>